<?xml version="1.0" encoding="UTF-8" standalone="no" ?>
<!DOCTYPE svg PUBLIC "-//W3C//DTD SVG 1.1//EN" "http://www.w3.org/Graphics/SVG/1.1/DTD/svg11.dtd">
<svg xmlns="http://www.w3.org/2000/svg" xmlns:xlink="http://www.w3.org/1999/xlink" version="1.1" width="390" height="220" viewBox="0 0 390 220" xml:space="preserve">
<desc>Created with Fabric.js 5.2.4</desc>
<defs>
</defs>
<g transform="matrix(1 0 0 1 195 110)" id="373ef8f8-da3e-4882-96e7-5b6bbf057cc7"  >
<rect style="stroke: none; stroke-width: 1; stroke-dasharray: none; stroke-linecap: butt; stroke-dashoffset: 0; stroke-linejoin: miter; stroke-miterlimit: 4; fill: rgb(255,255,255); fill-rule: nonzero; opacity: 1; visibility: hidden;" vector-effect="non-scaling-stroke"  x="-195" y="-110" rx="0" ry="0" width="390" height="220" />
</g>
<g transform="matrix(Infinity NaN NaN Infinity 0 0)" id="8f44409c-da7a-4d6d-b219-5738fd509375"  >
</g>
<g transform="matrix(1.93 0 0 1.93 195 58.19)"  >
<g style="" vector-effect="non-scaling-stroke"   >
		<g transform="matrix(1 0 0 1 -36.88 -2.37)"  >
<path style="stroke: none; stroke-width: 1; stroke-dasharray: none; stroke-linecap: butt; stroke-dashoffset: 0; stroke-linejoin: miter; stroke-miterlimit: 4; fill: rgb(84,84,84); fill-rule: nonzero; opacity: 1;" vector-effect="non-scaling-stroke"  transform=" translate(-63.32, -30.84)" d="M 50.751 48.727 L 50.751 12.472 L 58.001999999999995 12.472 L 58.001999999999995 30.019 C 59.88699999999999 27.698999999999998 62.54599999999999 26.924999999999997 65.301 26.924999999999997 C 71.343 26.924999999999997 75.887 32.193999999999996 75.887 38.092 C 75.887 43.99 71.344 49.21 65.302 49.21 C 62.547000000000004 49.21 59.453 48.34 58.00300000000001 46.164 L 58.00300000000001 48.726 L 50.751 48.726 z M 63.078 43.409 C 65.97800000000001 43.409 68.154 40.894999999999996 68.154 38.092 C 68.154 35.289 65.979 32.775 63.077999999999996 32.775 C 60.17699999999999 32.775 58.001999999999995 35.289 58.001999999999995 38.092 C 58.001999999999995 40.894999999999996 60.178 43.409 63.078 43.409 z" stroke-linecap="round" />
</g>
		<g transform="matrix(1 0 0 1 -15.85 -0.92)"  >
<path style="stroke: none; stroke-width: 1; stroke-dasharray: none; stroke-linecap: butt; stroke-dashoffset: 0; stroke-linejoin: miter; stroke-miterlimit: 4; fill: rgb(84,84,84); fill-rule: nonzero; opacity: 1;" vector-effect="non-scaling-stroke"  transform=" translate(-84.35, -32.29)" d="M 84.35 15.855 C 86.66999999999999 15.855 88.604 17.740000000000002 88.604 20.109 C 88.604 22.429000000000002 86.67 24.363 84.35 24.363 C 81.981 24.363 80.09599999999999 22.429 80.09599999999999 20.109 C 80.096 17.741 81.981 15.855 84.35 15.855 z M 80.724 48.727 L 80.724 27.409 L 87.97500000000001 27.409 L 87.97500000000001 48.727000000000004 L 80.724 48.727000000000004 z" stroke-linecap="round" />
</g>
		<g transform="matrix(1 0 0 1 4.72 4.61)"  >
<path style="stroke: none; stroke-width: 1; stroke-dasharray: none; stroke-linecap: butt; stroke-dashoffset: 0; stroke-linejoin: miter; stroke-miterlimit: 4; fill: rgb(84,84,84); fill-rule: nonzero; opacity: 1;" vector-effect="non-scaling-stroke"  transform=" translate(-104.92, -37.83)" d="M 115.819 48.727 L 108.569 48.727 L 108.569 36.642 C 108.569 34.128 107.602 32.775000000000006 105.33 32.775000000000006 C 103.05799999999999 32.775000000000006 101.269 35.19200000000001 101.269 38.092000000000006 L 101.269 48.727000000000004 L 94.018 48.727000000000004 L 94.018 27.409 L 101.269 27.409 L 101.269 30.019 C 102.71900000000001 28.182 104.991 26.924999999999997 107.795 26.924999999999997 C 113.499 26.924999999999997 115.819 30.840999999999998 115.819 36.641 L 115.819 48.727 z" stroke-linecap="round" />
</g>
		<g transform="matrix(1 0 0 1 32.05 -2.37)"  >
<path style="stroke: none; stroke-width: 1; stroke-dasharray: none; stroke-linecap: butt; stroke-dashoffset: 0; stroke-linejoin: miter; stroke-miterlimit: 4; fill: rgb(84,84,84); fill-rule: nonzero; opacity: 1;" vector-effect="non-scaling-stroke"  transform=" translate(-132.26, -30.84)" d="M 144.826 48.727 L 137.575 48.727 L 137.575 46.165 C 136.125 48.341 132.98299999999998 49.211 130.27599999999998 49.211 C 124.23299999999998 49.211 119.68899999999998 43.989999999999995 119.68899999999998 38.092999999999996 C 119.68899999999998 32.196 124.23299999999998 26.925999999999995 130.27599999999998 26.925999999999995 C 132.98299999999998 26.925999999999995 135.68999999999997 27.698999999999995 137.575 30.019999999999996 L 137.575 12.472 L 144.826 12.472 L 144.826 48.727 z M 132.499 32.774 C 129.599 32.774 127.42399999999999 35.288000000000004 127.42399999999999 38.091 C 127.42399999999999 40.894 129.599 43.408 132.499 43.408 C 135.399 43.408 137.575 40.894 137.575 38.091 C 137.575 35.288000000000004 135.399 32.774 132.499 32.774 z" stroke-linecap="round" />
</g>
		<g transform="matrix(1 0 0 1 61.35 4.85)"  >
<path style="stroke: none; stroke-width: 1; stroke-dasharray: none; stroke-linecap: butt; stroke-dashoffset: 0; stroke-linejoin: miter; stroke-miterlimit: 4; fill: rgb(84,84,84); fill-rule: nonzero; opacity: 1;" vector-effect="non-scaling-stroke"  transform=" translate(-161.56, -38.07)" d="M 173.639 38.962 L 157.107 38.962 C 157.107 41.428000000000004 158.847 44.037000000000006 161.699 44.037000000000006 C 164.26100000000002 44.037000000000006 165.857 42.346000000000004 165.905 40.79900000000001 L 173.301 40.79900000000001 C 172.045 46.406000000000006 167.5 49.21000000000001 161.845 49.21000000000001 C 154.49699999999999 49.21000000000001 149.422 44.85900000000001 149.422 38.092000000000006 C 149.422 31.421000000000006 154.691 26.925000000000004 161.845 26.925000000000004 C 168.323 26.925000000000004 173.688 30.792000000000005 173.688 37.608000000000004 C 173.687 38.043 173.639 38.527 173.639 38.962 z M 166.726 35.53 C 166.726 35.53 166.388 31.566000000000003 161.99 31.566000000000003 C 157.44500000000002 31.566000000000003 157.204 35.53 157.204 35.53 L 166.726 35.53 z" stroke-linecap="round" />
</g>
		<g transform="matrix(1 0 0 1 85.6 4.61)"  >
<path style="stroke: none; stroke-width: 1; stroke-dasharray: none; stroke-linecap: butt; stroke-dashoffset: 0; stroke-linejoin: miter; stroke-miterlimit: 4; fill: rgb(84,84,84); fill-rule: nonzero; opacity: 1;" vector-effect="non-scaling-stroke"  transform=" translate(-185.8, -37.83)" d="M 185.532 38.092 L 185.532 48.727 L 178.281 48.727 L 178.281 27.409 L 185.532 27.409 L 185.532 30.019 C 186.643 28.424 188.48100000000002 26.924999999999997 191.139 26.924999999999997 C 191.768 26.924999999999997 192.735 27.118 193.315 27.407999999999998 L 193.315 33.982 L 193.21699999999998 33.982 C 192.492 33.112 191.42899999999997 32.774 190.31699999999998 32.774 C 187.61 32.774 185.532 35.53 185.532 38.092 z" stroke-linecap="round" />
</g>
		<g transform="matrix(1 0 0 1 -72.32 -9.28)"  >
<circle style="stroke: rgb(245,162,82); stroke-width: 4.8342; stroke-dasharray: none; stroke-linecap: butt; stroke-dashoffset: 0; stroke-linejoin: miter; stroke-miterlimit: 10; fill: none; fill-rule: nonzero; opacity: 1;" vector-effect="non-scaling-stroke"  cx="0" cy="0" r="9.542" />
</g>
		<g transform="matrix(1 0 0 1 -72.32 9.28)"  >
<circle style="stroke: rgb(87,154,202); stroke-width: 4.8342; stroke-dasharray: none; stroke-linecap: butt; stroke-dashoffset: 0; stroke-linejoin: miter; stroke-miterlimit: 10; fill: none; fill-rule: nonzero; opacity: 1;" vector-effect="non-scaling-stroke"  cx="0" cy="0" r="9.543" />
</g>
		<g transform="matrix(1 0 0 1 -81.65 0.07)"  >
<circle style="stroke: rgb(230,101,129); stroke-width: 4.8342; stroke-dasharray: none; stroke-linecap: butt; stroke-dashoffset: 0; stroke-linejoin: miter; stroke-miterlimit: 10; fill: none; fill-rule: nonzero; opacity: 1;" vector-effect="non-scaling-stroke"  cx="0" cy="0" r="9.543" />
</g>
		<g transform="matrix(1 0 0 1 -72.03 2.13)"  >
<path style="stroke: rgb(87,154,202); stroke-width: 4.8342; stroke-dasharray: none; stroke-linecap: butt; stroke-dashoffset: 0; stroke-linejoin: miter; stroke-miterlimit: 10; fill: none; fill-rule: nonzero; opacity: 1;" vector-effect="non-scaling-stroke"  transform=" translate(-28.17, -35.35)" d="M 20.196 36.836 C 20.955000000000002 35.805 21.936 34.909 23.117 34.229 C 27.683 31.599 33.518 33.169 36.148 37.736" stroke-linecap="round" />
</g>
		<g transform="matrix(1 0 0 1 -72.96 -11.67)"  >
<path style="stroke: rgb(245,162,82); stroke-width: 4.8342; stroke-dasharray: none; stroke-linecap: butt; stroke-dashoffset: 0; stroke-linejoin: miter; stroke-miterlimit: 10; fill: none; fill-rule: nonzero; opacity: 1;" vector-effect="non-scaling-stroke"  transform=" translate(-27.24, -21.55)" d="M 19.61 28.701 C 16.98 24.135 18.549 18.3 23.117 15.669 C 27.684 13.039000000000001 33.518 14.610000000000001 36.148 19.177" stroke-linecap="round" />
</g>
</g>
</g>
<g transform="matrix(1.49 0 0 1.49 390 255.22)"  >
<g style="" vector-effect="non-scaling-stroke"   >
		<g transform="matrix(1 0 0 1 0 0)"  >
<path style="stroke: none; stroke-width: 1; stroke-dasharray: none; stroke-linecap: butt; stroke-dashoffset: 0; stroke-linejoin: miter; stroke-miterlimit: 4; fill: rgb(3,23,149); fill-rule: nonzero; opacity: 1;" vector-effect="non-scaling-stroke"  transform=" translate(-92.15, -20.5)" d="M 26.168 5.381 C 23.003999999999998 2.737 19.868 0.5830000000000002 15.796 0.26400000000000023 C 12.700999999999999 0.02100000000000024 11.076999999999998 2.5420000000000003 9.611999999999998 5.146 C 7.166 9.496 -0.69 26.159 0.225 32.127 C 2.183 44.903000000000006 26.573 41.248000000000005 35.526 35.429 C 42.461 30.923 38.741 15.886 26.168 5.381 M 34.347 27.429 C 34.297000000000004 27.965999999999998 34.221000000000004 28.494999999999997 34.114000000000004 29.011 C 33.313 32.9 29.855000000000004 34.885 26.431000000000004 35.854 C 23.178000000000004 36.775 19.871000000000006 37.5 16.526000000000003 37.951 C 13.756000000000004 38.325 10.964000000000002 38.239 8.199000000000003 36.969 C 1.7770000000000037 34.02 4.4040000000000035 26.527 6.129000000000003 22.416 C 8.370000000000003 17.075 10.195000000000004 11.673 12.833000000000002 6.207000000000001 C 13.724000000000002 4.360000000000001 16.095000000000002 2.927000000000001 18.346000000000004 3.771000000000001 C 20.935000000000002 4.743 23.295 6.404000000000001 25.213000000000005 8.393 C 27.879000000000005 11.161000000000001 30.246000000000006 13.791 31.976000000000006 17.281 C 33.376 20.105 34.65 24.146 34.347 27.429 M 29.984 21.578 C 29.17 19.515 24.882 10.097 19.978 7.334 C 16.717000000000002 5.4959999999999996 14.659000000000002 9.873 13.844000000000001 11.645 C 12.412 14.763 11.112000000000002 17.942999999999998 9.736 21.088 C 8.392000000000001 24.159000000000002 7.1610000000000005 27.916 7.9590000000000005 31.413 C 8.51 33.827 10.865 35.085 13.001000000000001 35.243 C 16.109 35.474000000000004 24.569000000000003 33.448 26.025 32.797000000000004 C 29.45 31.269000000000005 30.433999999999997 29.429000000000006 30.971999999999998 27.327000000000005 C 31.416 25.585 30.675 23.331 29.984 21.578 M 22.077 31.149 C 20.223000000000003 31.772000000000002 15.208000000000002 32.894 12.046000000000001 31.926000000000002 C 9.383000000000001 31.112000000000002 10.712000000000002 26.471000000000004 11.392000000000001 24.523000000000003 C 12.317000000000002 21.872000000000003 16.558 11.822000000000003 17.351 11.076000000000004 C 19.326999999999998 9.216000000000005 21.522 12.411000000000005 22.924999999999997 14.398000000000003 C 32.624 26.864 24.842 30.22 22.077 31.149 M 57.627 29.648 L 54.401 29.648 L 53.434000000000005 26.729 L 53.39 26.729 L 51.549 27.378 L 48.721 27.378 L 47.991 29.649 L 44.896 29.649 L 49.361000000000004 16.349 L 53.161 16.349 L 57.627 29.648 z M 49.64 24.458 L 52.75 24.458 L 51.204 19.592 L 51.185 19.592 L 49.64 24.458 z M 68.347 29.648 L 65.103 29.648 L 65.103 24.086 C 65.103 23.127 64.49499999999999 22.552 63.581999999999994 22.552 C 62.36599999999999 22.552 61.858999999999995 23.415 61.858999999999995 24.853 L 61.858999999999995 29.647000000000002 L 58.94 29.647000000000002 L 58.94 19.916000000000004 L 61.858999999999995 19.916000000000004 L 61.858999999999995 21.214000000000006 L 61.879 21.214000000000006 C 62.568 20.351000000000006 63.582 19.872000000000007 64.798 19.872000000000007 C 67.13 19.872000000000007 68.346 21.214000000000006 68.346 23.686000000000007 L 68.346 29.648 z M 77.43 19.916 L 80.349 19.916 L 80.349 28.736 C 80.349 31.629 78.433 33.751 75.239 33.751 C 73.232 33.751 71.863 33.172999999999995 70.85900000000001 32.400999999999996 L 72.41000000000001 30.375999999999998 C 72.921 30.703999999999997 73.77900000000001 31.147999999999996 75.05600000000001 31.147999999999996 C 76.644 31.147999999999996 77.42800000000001 30.163999999999994 77.42800000000001 28.736999999999995 L 77.42800000000001 28.35 L 77.41000000000001 28.35 C 76.88100000000001 29.218 75.87700000000001 29.700000000000003 74.60000000000001 29.700000000000003 C 71.86200000000001 29.700000000000003 70.22000000000001 27.578000000000003 70.22000000000001 24.781000000000002 C 70.22000000000001 21.984 71.86200000000001 19.863000000000003 74.60000000000001 19.863000000000003 C 75.87700000000001 19.863000000000003 76.88100000000001 20.345000000000002 77.41000000000001 21.213000000000005 L 77.42800000000001 21.213000000000005 L 77.42800000000001 19.916 z M 77.337 24.735 C 77.337 23.412 76.416 22.53 75.132 22.53 C 73.84700000000001 22.53 72.927 23.413 72.927 24.735 C 72.927 26.058 73.84700000000001 26.939999999999998 75.132 26.939999999999998 C 76.417 26.941 77.337 26.059 77.337 24.735 M 85.54 29.648 L 82.62 29.648 L 82.62 16.348 L 85.539 16.348 L 85.539 29.648 z M 87.012 24.831 C 87.012 21.954 89.122 19.845 92.19 19.845 C 95.259 19.845 97.368 21.954 97.368 24.831 C 97.368 27.708 95.258 29.817 92.19 29.817 C 89.122 29.817 87.012 27.708 87.012 24.831 M 94.204 24.831 C 94.204 23.508 93.475 22.53 92.19 22.53 C 90.905 22.53 90.17699999999999 23.508000000000003 90.17699999999999 24.831000000000003 C 90.17699999999999 26.154000000000003 90.90599999999999 27.132000000000005 92.19 27.132000000000005 C 93.475 27.132 94.204 26.155 94.204 24.831 M 110.733 29.648 L 107.50800000000001 29.648 L 106.54100000000001 26.729 L 106.498 26.729 L 104.656 27.378 L 101.828 27.378 L 101.098 29.649 L 98.004 29.649 L 102.46900000000001 16.349 L 106.269 16.349 L 110.733 29.648 z M 102.746 24.458 L 105.856 24.458 L 104.30999999999999 19.592 L 104.29099999999998 19.592 L 102.746 24.458 z M 127.061 23.809 L 127.061 29.648000000000003 L 124.14200000000001 29.648000000000003 L 124.14200000000001 24.086000000000002 C 124.14200000000001 23.127000000000002 123.558 22.552000000000003 122.87700000000001 22.552000000000003 C 121.709 22.552000000000003 121.22300000000001 23.415000000000003 121.22300000000001 24.853 L 121.22300000000001 29.647000000000002 L 117.97900000000001 29.647000000000002 L 117.97900000000001 24.085 C 117.97900000000001 23.126 117.39500000000001 22.551000000000002 116.71400000000001 22.551000000000002 C 115.546 22.551000000000002 115.06000000000002 23.414 115.06000000000002 24.852000000000004 L 115.06000000000002 29.646000000000004 L 112.14100000000002 29.646000000000004 L 112.14100000000002 19.915000000000006 L 115.06000000000002 19.915000000000006 L 115.06000000000002 21.213000000000008 L 115.22500000000002 21.213000000000008 C 115.78100000000002 20.32400000000001 116.74000000000002 19.84400000000001 117.89000000000003 19.84400000000001 C 119.25200000000002 19.84400000000001 120.72800000000002 21.53700000000001 120.72800000000002 21.53700000000001 L 120.76600000000002 21.53700000000001 C 121.34100000000002 20.67400000000001 122.20500000000001 19.90700000000001 123.73900000000002 19.90700000000001 C 126.04000000000002 19.90700000000001 127.09500000000001 21.24900000000001 127.09500000000001 23.72300000000001 M 138.739 25.755 L 131.927 25.755 C 132.215 26.676 132.944 27.192999999999998 133.999 27.192999999999998 C 134.958 27.192999999999998 135.571 26.752 135.916 26.233999999999998 L 138.218 27.767999999999997 C 137.355 28.822999999999997 136.012 29.685999999999996 133.903 29.685999999999996 C 130.739 29.685999999999996 128.629 27.576999999999998 128.629 24.699999999999996 C 128.629 21.822999999999993 130.739 19.713999999999995 133.807 19.713999999999995 C 136.684 19.713999999999995 138.69699999999997 21.631999999999994 138.69699999999997 24.852999999999994 C 138.69699999999997 25.140999999999995 138.69699999999997 25.447999999999993 138.65899999999996 25.754999999999995 M 135.629 23.809 C 135.533 22.85 135.054 22.179000000000002 133.807 22.179000000000002 C 132.80999999999997 22.179000000000002 132.13899999999998 22.774 131.88899999999998 23.809 L 135.629 23.809 z M 146.199 22.958 C 143.572 22.958 143.28 23.566 143.28 25.389999999999997 L 143.28 29.647999999999996 L 140.361 29.647999999999996 L 140.361 19.916999999999994 L 143.28 19.916999999999994 L 143.28 21.538999999999994 L 143.3 21.538999999999994 C 143.865 20.322999999999993 144.643 19.714999999999993 146.20000000000002 19.714999999999993 L 146.20000000000002 22.958 z M 147.136 17.352 C 147.136 16.393 147.903 15.626000000000001 148.862 15.626000000000001 C 149.821 15.626000000000001 150.588 16.393 150.588 17.352 C 150.588 18.311 149.821 19.078 148.862 19.078 C 147.903 19.078 147.136 18.311 147.136 17.352 M 150.416 29.648 L 147.49699999999999 29.648 L 147.49699999999999 19.917 L 150.416 19.917 L 150.416 29.648 z M 159.026 25.982 L 161.519 27.439 C 160.579 28.916 159.026 29.817 157.012 29.817 C 154.04 29.817 151.93 27.708 151.93 24.831 C 151.93 21.954 154.04000000000002 19.845 157.108 19.845 C 159.026 19.845 160.579 20.746 161.519 22.223 L 159.026 23.68 C 158.547 22.875 157.91400000000002 22.529 157.108 22.529 C 155.823 22.529 155.095 23.507 155.095 24.83 C 155.095 26.153 155.824 27.131 157.108 27.131 C 157.914 27.132 158.547 26.787 159.026 25.982 M 169.88 21.214 L 169.88 19.915999999999997 L 172.799 19.915999999999997 L 172.799 29.647 L 169.88 29.647 L 169.88 28.35 L 169.861 28.35 C 169.416 29.041 168.64399999999998 29.481 167.658 29.618000000000002 C 164.91199999999998 30.001 162.54999999999998 27.773000000000003 162.464 25.002000000000002 C 162.374 22.073000000000004 164.078 19.899 166.968 19.899 C 168.283 19.899 169.316 20.368000000000002 169.85999999999999 21.214000000000002 L 169.88 21.214000000000002 z M 169.862 24.831 C 169.862 23.412 168.941 22.53 167.65699999999998 22.53 C 166.37099999999998 22.53 165.451 23.413 165.451 24.831000000000003 C 165.451 26.250000000000004 166.37099999999998 27.132000000000005 167.65699999999998 27.132000000000005 C 168.941 27.132 169.862 26.25 169.862 24.831 M 184.152 29.648 L 180.908 29.648 L 180.908 24.086 C 180.908 23.127 180.361 22.552 179.54 22.552 C 178.445 22.552 177.989 23.415 177.989 24.853 L 177.989 29.647000000000002 L 175.07 29.647000000000002 L 175.07 19.916000000000004 L 177.989 19.916000000000004 L 177.989 21.214000000000006 L 178.00900000000001 21.214000000000006 C 178.663 20.351000000000006 179.626 19.872000000000007 180.782 19.872000000000007 C 182.997 19.872000000000007 184.15300000000002 21.214000000000006 184.15300000000002 23.686000000000007 L 184.15300000000002 29.648 z" stroke-linecap="round" />
</g>
		<g transform="matrix(1 0 0 1 -72.58 2.35)"  >
<path style="stroke: none; stroke-width: 1; stroke-dasharray: none; stroke-linecap: butt; stroke-dashoffset: 0; stroke-linejoin: miter; stroke-miterlimit: 4; fill: rgb(255,0,0); fill-rule: nonzero; opacity: 1;" vector-effect="non-scaling-stroke"  transform=" translate(-19.57, -22.85)" d="M 24.61 22.599 C 23.791 20.821 22.405 18.477 20.608 16.869 C 19.915 16.25 17.924 15.522 17.316000000000003 17.182 C 16.219 20.073999999999998 15.360000000000003 23.064999999999998 14.541000000000002 25.958 C 14.315000000000001 26.756999999999998 13.946000000000002 28.761 14.798000000000002 29.290999999999997 C 16.749000000000002 30.508999999999997 22.275000000000002 26.9 23.983000000000004 25.812999999999995 C 24.958 25.196 25.083 23.626 24.61 22.599 M 22.011 24.267 C 20.782999999999998 25.352999999999998 18.744999999999997 26.698 17.328 26.642 C 15.869 26.585 17.916999999999998 20.216 19.105 19.247 C 20.065 18.465 22.155 22.063 22.278 22.442 C 22.481 23.063 22.457 23.872 22.011 24.267" stroke-linecap="round" />
</g>
</g>
</g>
<g transform="matrix(1.79 0 0 1.79 195 158.39)"  >
<g style="" vector-effect="non-scaling-stroke"   >
		<g transform="matrix(1 0 0 1 0 0)"  >
<path style="stroke: none; stroke-width: 1; stroke-dasharray: none; stroke-linecap: butt; stroke-dashoffset: 0; stroke-linejoin: miter; stroke-miterlimit: 4; fill: rgb(3,23,149); fill-rule: nonzero; opacity: 1;" vector-effect="non-scaling-stroke"  transform=" translate(-92.15, -20.5)" d="M 26.168 5.381 C 23.003999999999998 2.737 19.868 0.5830000000000002 15.796 0.26400000000000023 C 12.700999999999999 0.02100000000000024 11.076999999999998 2.5420000000000003 9.611999999999998 5.146 C 7.166 9.496 -0.69 26.159 0.225 32.127 C 2.183 44.903000000000006 26.573 41.248000000000005 35.526 35.429 C 42.461 30.923 38.741 15.886 26.168 5.381 M 34.347 27.429 C 34.297000000000004 27.965999999999998 34.221000000000004 28.494999999999997 34.114000000000004 29.011 C 33.313 32.9 29.855000000000004 34.885 26.431000000000004 35.854 C 23.178000000000004 36.775 19.871000000000006 37.5 16.526000000000003 37.951 C 13.756000000000004 38.325 10.964000000000002 38.239 8.199000000000003 36.969 C 1.7770000000000037 34.02 4.4040000000000035 26.527 6.129000000000003 22.416 C 8.370000000000003 17.075 10.195000000000004 11.673 12.833000000000002 6.207000000000001 C 13.724000000000002 4.360000000000001 16.095000000000002 2.927000000000001 18.346000000000004 3.771000000000001 C 20.935000000000002 4.743 23.295 6.404000000000001 25.213000000000005 8.393 C 27.879000000000005 11.161000000000001 30.246000000000006 13.791 31.976000000000006 17.281 C 33.376 20.105 34.65 24.146 34.347 27.429 M 29.984 21.578 C 29.17 19.515 24.882 10.097 19.978 7.334 C 16.717000000000002 5.4959999999999996 14.659000000000002 9.873 13.844000000000001 11.645 C 12.412 14.763 11.112000000000002 17.942999999999998 9.736 21.088 C 8.392000000000001 24.159000000000002 7.1610000000000005 27.916 7.9590000000000005 31.413 C 8.51 33.827 10.865 35.085 13.001000000000001 35.243 C 16.109 35.474000000000004 24.569000000000003 33.448 26.025 32.797000000000004 C 29.45 31.269000000000005 30.433999999999997 29.429000000000006 30.971999999999998 27.327000000000005 C 31.416 25.585 30.675 23.331 29.984 21.578 M 22.077 31.149 C 20.223000000000003 31.772000000000002 15.208000000000002 32.894 12.046000000000001 31.926000000000002 C 9.383000000000001 31.112000000000002 10.712000000000002 26.471000000000004 11.392000000000001 24.523000000000003 C 12.317000000000002 21.872000000000003 16.558 11.822000000000003 17.351 11.076000000000004 C 19.326999999999998 9.216000000000005 21.522 12.411000000000005 22.924999999999997 14.398000000000003 C 32.624 26.864 24.842 30.22 22.077 31.149 M 57.627 29.648 L 54.401 29.648 L 53.434000000000005 26.729 L 53.39 26.729 L 51.549 27.378 L 48.721 27.378 L 47.991 29.649 L 44.896 29.649 L 49.361000000000004 16.349 L 53.161 16.349 L 57.627 29.648 z M 49.64 24.458 L 52.75 24.458 L 51.204 19.592 L 51.185 19.592 L 49.64 24.458 z M 68.347 29.648 L 65.103 29.648 L 65.103 24.086 C 65.103 23.127 64.49499999999999 22.552 63.581999999999994 22.552 C 62.36599999999999 22.552 61.858999999999995 23.415 61.858999999999995 24.853 L 61.858999999999995 29.647000000000002 L 58.94 29.647000000000002 L 58.94 19.916000000000004 L 61.858999999999995 19.916000000000004 L 61.858999999999995 21.214000000000006 L 61.879 21.214000000000006 C 62.568 20.351000000000006 63.582 19.872000000000007 64.798 19.872000000000007 C 67.13 19.872000000000007 68.346 21.214000000000006 68.346 23.686000000000007 L 68.346 29.648 z M 77.43 19.916 L 80.349 19.916 L 80.349 28.736 C 80.349 31.629 78.433 33.751 75.239 33.751 C 73.232 33.751 71.863 33.172999999999995 70.85900000000001 32.400999999999996 L 72.41000000000001 30.375999999999998 C 72.921 30.703999999999997 73.77900000000001 31.147999999999996 75.05600000000001 31.147999999999996 C 76.644 31.147999999999996 77.42800000000001 30.163999999999994 77.42800000000001 28.736999999999995 L 77.42800000000001 28.35 L 77.41000000000001 28.35 C 76.88100000000001 29.218 75.87700000000001 29.700000000000003 74.60000000000001 29.700000000000003 C 71.86200000000001 29.700000000000003 70.22000000000001 27.578000000000003 70.22000000000001 24.781000000000002 C 70.22000000000001 21.984 71.86200000000001 19.863000000000003 74.60000000000001 19.863000000000003 C 75.87700000000001 19.863000000000003 76.88100000000001 20.345000000000002 77.41000000000001 21.213000000000005 L 77.42800000000001 21.213000000000005 L 77.42800000000001 19.916 z M 77.337 24.735 C 77.337 23.412 76.416 22.53 75.132 22.53 C 73.84700000000001 22.53 72.927 23.413 72.927 24.735 C 72.927 26.058 73.84700000000001 26.939999999999998 75.132 26.939999999999998 C 76.417 26.941 77.337 26.059 77.337 24.735 M 85.54 29.648 L 82.62 29.648 L 82.62 16.348 L 85.539 16.348 L 85.539 29.648 z M 87.012 24.831 C 87.012 21.954 89.122 19.845 92.19 19.845 C 95.259 19.845 97.368 21.954 97.368 24.831 C 97.368 27.708 95.258 29.817 92.19 29.817 C 89.122 29.817 87.012 27.708 87.012 24.831 M 94.204 24.831 C 94.204 23.508 93.475 22.53 92.19 22.53 C 90.905 22.53 90.17699999999999 23.508000000000003 90.17699999999999 24.831000000000003 C 90.17699999999999 26.154000000000003 90.90599999999999 27.132000000000005 92.19 27.132000000000005 C 93.475 27.132 94.204 26.155 94.204 24.831 M 110.733 29.648 L 107.50800000000001 29.648 L 106.54100000000001 26.729 L 106.498 26.729 L 104.656 27.378 L 101.828 27.378 L 101.098 29.649 L 98.004 29.649 L 102.46900000000001 16.349 L 106.269 16.349 L 110.733 29.648 z M 102.746 24.458 L 105.856 24.458 L 104.30999999999999 19.592 L 104.29099999999998 19.592 L 102.746 24.458 z M 127.061 23.809 L 127.061 29.648000000000003 L 124.14200000000001 29.648000000000003 L 124.14200000000001 24.086000000000002 C 124.14200000000001 23.127000000000002 123.558 22.552000000000003 122.87700000000001 22.552000000000003 C 121.709 22.552000000000003 121.22300000000001 23.415000000000003 121.22300000000001 24.853 L 121.22300000000001 29.647000000000002 L 117.97900000000001 29.647000000000002 L 117.97900000000001 24.085 C 117.97900000000001 23.126 117.39500000000001 22.551000000000002 116.71400000000001 22.551000000000002 C 115.546 22.551000000000002 115.06000000000002 23.414 115.06000000000002 24.852000000000004 L 115.06000000000002 29.646000000000004 L 112.14100000000002 29.646000000000004 L 112.14100000000002 19.915000000000006 L 115.06000000000002 19.915000000000006 L 115.06000000000002 21.213000000000008 L 115.22500000000002 21.213000000000008 C 115.78100000000002 20.32400000000001 116.74000000000002 19.84400000000001 117.89000000000003 19.84400000000001 C 119.25200000000002 19.84400000000001 120.72800000000002 21.53700000000001 120.72800000000002 21.53700000000001 L 120.76600000000002 21.53700000000001 C 121.34100000000002 20.67400000000001 122.20500000000001 19.90700000000001 123.73900000000002 19.90700000000001 C 126.04000000000002 19.90700000000001 127.09500000000001 21.24900000000001 127.09500000000001 23.72300000000001 M 138.739 25.755 L 131.927 25.755 C 132.215 26.676 132.944 27.192999999999998 133.999 27.192999999999998 C 134.958 27.192999999999998 135.571 26.752 135.916 26.233999999999998 L 138.218 27.767999999999997 C 137.355 28.822999999999997 136.012 29.685999999999996 133.903 29.685999999999996 C 130.739 29.685999999999996 128.629 27.576999999999998 128.629 24.699999999999996 C 128.629 21.822999999999993 130.739 19.713999999999995 133.807 19.713999999999995 C 136.684 19.713999999999995 138.69699999999997 21.631999999999994 138.69699999999997 24.852999999999994 C 138.69699999999997 25.140999999999995 138.69699999999997 25.447999999999993 138.65899999999996 25.754999999999995 M 135.629 23.809 C 135.533 22.85 135.054 22.179000000000002 133.807 22.179000000000002 C 132.80999999999997 22.179000000000002 132.13899999999998 22.774 131.88899999999998 23.809 L 135.629 23.809 z M 146.199 22.958 C 143.572 22.958 143.28 23.566 143.28 25.389999999999997 L 143.28 29.647999999999996 L 140.361 29.647999999999996 L 140.361 19.916999999999994 L 143.28 19.916999999999994 L 143.28 21.538999999999994 L 143.3 21.538999999999994 C 143.865 20.322999999999993 144.643 19.714999999999993 146.20000000000002 19.714999999999993 L 146.20000000000002 22.958 z M 147.136 17.352 C 147.136 16.393 147.903 15.626000000000001 148.862 15.626000000000001 C 149.821 15.626000000000001 150.588 16.393 150.588 17.352 C 150.588 18.311 149.821 19.078 148.862 19.078 C 147.903 19.078 147.136 18.311 147.136 17.352 M 150.416 29.648 L 147.49699999999999 29.648 L 147.49699999999999 19.917 L 150.416 19.917 L 150.416 29.648 z M 159.026 25.982 L 161.519 27.439 C 160.579 28.916 159.026 29.817 157.012 29.817 C 154.04 29.817 151.93 27.708 151.93 24.831 C 151.93 21.954 154.04000000000002 19.845 157.108 19.845 C 159.026 19.845 160.579 20.746 161.519 22.223 L 159.026 23.68 C 158.547 22.875 157.91400000000002 22.529 157.108 22.529 C 155.823 22.529 155.095 23.507 155.095 24.83 C 155.095 26.153 155.824 27.131 157.108 27.131 C 157.914 27.132 158.547 26.787 159.026 25.982 M 169.88 21.214 L 169.88 19.915999999999997 L 172.799 19.915999999999997 L 172.799 29.647 L 169.88 29.647 L 169.88 28.35 L 169.861 28.35 C 169.416 29.041 168.64399999999998 29.481 167.658 29.618000000000002 C 164.91199999999998 30.001 162.54999999999998 27.773000000000003 162.464 25.002000000000002 C 162.374 22.073000000000004 164.078 19.899 166.968 19.899 C 168.283 19.899 169.316 20.368000000000002 169.85999999999999 21.214000000000002 L 169.88 21.214000000000002 z M 169.862 24.831 C 169.862 23.412 168.941 22.53 167.65699999999998 22.53 C 166.37099999999998 22.53 165.451 23.413 165.451 24.831000000000003 C 165.451 26.250000000000004 166.37099999999998 27.132000000000005 167.65699999999998 27.132000000000005 C 168.941 27.132 169.862 26.25 169.862 24.831 M 184.152 29.648 L 180.908 29.648 L 180.908 24.086 C 180.908 23.127 180.361 22.552 179.54 22.552 C 178.445 22.552 177.989 23.415 177.989 24.853 L 177.989 29.647000000000002 L 175.07 29.647000000000002 L 175.07 19.916000000000004 L 177.989 19.916000000000004 L 177.989 21.214000000000006 L 178.00900000000001 21.214000000000006 C 178.663 20.351000000000006 179.626 19.872000000000007 180.782 19.872000000000007 C 182.997 19.872000000000007 184.15300000000002 21.214000000000006 184.15300000000002 23.686000000000007 L 184.15300000000002 29.648 z" stroke-linecap="round" />
</g>
		<g transform="matrix(1 0 0 1 -72.58 2.35)"  >
<path style="stroke: none; stroke-width: 1; stroke-dasharray: none; stroke-linecap: butt; stroke-dashoffset: 0; stroke-linejoin: miter; stroke-miterlimit: 4; fill: rgb(255,0,0); fill-rule: nonzero; opacity: 1;" vector-effect="non-scaling-stroke"  transform=" translate(-19.57, -22.85)" d="M 24.61 22.599 C 23.791 20.821 22.405 18.477 20.608 16.869 C 19.915 16.25 17.924 15.522 17.316000000000003 17.182 C 16.219 20.073999999999998 15.360000000000003 23.064999999999998 14.541000000000002 25.958 C 14.315000000000001 26.756999999999998 13.946000000000002 28.761 14.798000000000002 29.290999999999997 C 16.749000000000002 30.508999999999997 22.275000000000002 26.9 23.983000000000004 25.812999999999995 C 24.958 25.196 25.083 23.626 24.61 22.599 M 22.011 24.267 C 20.782999999999998 25.352999999999998 18.744999999999997 26.698 17.328 26.642 C 15.869 26.585 17.916999999999998 20.216 19.105 19.247 C 20.065 18.465 22.155 22.063 22.278 22.442 C 22.481 23.063 22.457 23.872 22.011 24.267" stroke-linecap="round" />
</g>
</g>
</g>
</svg>